<?xml version="1.0" encoding="UTF-8" standalone="no"?><!DOCTYPE svg PUBLIC "-//W3C//DTD SVG 1.1//EN" "http://www.w3.org/Graphics/SVG/1.1/DTD/svg11.dtd"><svg width="100%" height="100%" viewBox="0 0 45 48" version="1.1" xmlns="http://www.w3.org/2000/svg" xmlns:xlink="http://www.w3.org/1999/xlink" xml:space="preserve" xmlns:serif="http://www.serif.com/" style="fill-rule:evenodd;clip-rule:evenodd;stroke-linejoin:round;stroke-miterlimit:2;"><g><path d="M42.272,0.008l-8.495,1.469c-0.044,0.009 -0.419,0.083 -0.294,0.486c2.938,9.469 2.989,17.29 2.999,18.815c0.003,0.409 -0.705,0.507 -0.787,0.31c-3.792,-9.068 -10.033,-15.998 -11.131,-17.217l-0.589,-0.197l-5.734,1.525l-0.262,0.433c0.341,1.66 2.286,11.133 0.832,21.167c-0.06,0.413 -0.72,0.591 -0.799,0.219c-1.975,-9.317 -7.784,-17.262 -8.754,-18.589c-0.036,-0.049 -0.294,-0.403 -0.708,-0.266l-8.29,2.904c-0.509,0.189 -0.12,0.649 -0.084,0.692c4.128,4.886 14.912,18.633 9.957,35.983c-0.065,0.228 0.051,0.315 0.261,0.22l9.104,-3.858l0.517,-0.493c3.485,-6.515 5.817,-14.069 6.667,-20.632c0.053,-0.409 0.704,-0.435 0.778,-0.267c1.895,4.274 3.595,10.288 3.947,16.929l0.331,0.198l9.1,-2.438l0.493,-0.495c3.097,-11.085 3.776,-24.373 1.561,-36.483c-0.093,-0.493 -0.561,-0.424 -0.62,-0.415l-0,0Z" style="fill:#6700aa;"/></g></svg>