<?xml version="1.0" encoding="UTF-8" ?>
  <svg width="100%" height="100%" viewBox="0 0 90 90" version="1.1" xmlns="http://www.w3.org/2000/svg" xmlns:xlink="http://www.w3.org/1999/xlink" xml:space="preserve" xmlns:serif="http://www.serif.com/" style="fill-rule:evenodd;clip-rule:evenodd;stroke-linejoin:round;stroke-miterlimit:2;"><path d="M36.603,46.977l-34.57,-11.66c-2.707,-0.91 -2.703,-4.726 -0.035,-5.66l83.988,-29.453c2.371,-0.828 4.629,1.473 3.809,3.809l-29.453,83.988c-0.938,2.683 -4.766,2.668 -5.668,-0.063l-11.668,-34.586c-0.219,-0.652 -0.2,-1.328 0.011,-1.933l2.387,-6.824l-6.824,2.386c-0.668,0.231 -1.36,0.215 -1.977,-0.004l0,0Zm12.023,-9.847l9.992,-9.992c2.793,-2.793 7.036,1.449 4.243,4.242l-9.993,9.992l-3.863,11.047l8.57,25.402l24.516,-69.91l-69.914,24.516l25.402,8.57l11.047,-3.867Z"/>
</svg>