<?xml version="1.0" encoding="UTF-8" standalone="no"?><!DOCTYPE svg PUBLIC "-//W3C//DTD SVG 1.1//EN" "http://www.w3.org/Graphics/SVG/1.1/DTD/svg11.dtd"><svg width="100%" height="100%" viewBox="0 0 202 50" version="1.1" xmlns="http://www.w3.org/2000/svg" xmlns:xlink="http://www.w3.org/1999/xlink" xml:space="preserve" xmlns:serif="http://www.serif.com/" style="fill-rule:evenodd;clip-rule:evenodd;stroke-linejoin:round;stroke-miterlimit:2;"><g><g><path d="M38.115,2.346c-0.612,0.09 -3.785,0.562 -7.614,1.316c-0.198,0.039 -0.321,0.249 -0.263,0.435c0.405,1.305 2.634,8.489 2.688,16.865c0.002,0.433 -0.551,0.648 -0.706,0.278c-3.398,-8.128 -8.993,-14.34 -9.977,-15.432c-0.03,-0.033 -0.227,-0.252 -0.528,-0.177c-0.412,0.103 -2.557,0.641 -5.139,1.367c-0.173,0.049 -0.271,0.212 -0.235,0.388c0.306,1.488 2.05,9.98 0.746,18.973c-0.068,0.466 -0.628,0.615 -0.716,0.196c-1.77,-8.351 -6.977,-15.473 -7.847,-16.662c-0.147,-0.201 -0.457,-0.297 -0.635,-0.238c-0.598,0.197 -3.684,1.216 -7.43,2.603c-0.234,0.087 -0.269,0.391 -0.075,0.62c3.665,4.337 13.374,16.681 8.924,32.253c-0.054,0.189 0.059,0.276 0.234,0.197c4.122,-1.874 7.5,-3.2 8.16,-3.459c0.287,-0.112 0.439,-0.396 0.463,-0.441c0.734,-1.371 4.725,-8.832 5.977,-18.493c0.054,-0.419 0.55,-0.572 0.697,-0.239c1.7,3.834 3.223,9.231 3.538,15.173c0.008,0.166 0.152,0.222 0.297,0.178c4.113,-1.246 7.498,-2.033 8.156,-2.186c0.171,-0.039 0.386,-0.244 0.441,-0.443c2.866,-10.254 3.443,-21.53 1.4,-32.7c-0.039,-0.209 -0.32,-0.407 -0.556,-0.372l-0,-0Z" style="fill:#6700aa;fill-rule:nonzero;"/><path d="M66.81,8.478c-0.55,-0.028 -3.428,-0.177 -6.885,-0.148c-0.201,0.002 -0.382,0.195 -0.372,0.387l0.036,0.73c0.007,0.15 -0.157,0.235 -0.283,0.168c-1.975,-1.042 -4.341,-1.537 -6.561,-1.384c-7.248,0.497 -11.598,7.049 -11.456,14.436c0.152,7.938 5.354,11.903 11.997,11.386c2.238,-0.174 4.546,-0.91 6.411,-2.055c0.131,-0.08 0.289,0.023 0.291,0.17l0.004,0.374c0.002,0.212 0.201,0.404 0.392,0.403c3.413,-0.028 6.247,0.147 6.789,0.181c0.19,0.011 0.375,-0.169 0.361,-0.384c-0.574,-8.546 -0.392,-18.334 -0.333,-23.861c0.002,-0.19 -0.187,-0.392 -0.391,-0.403Zm-12.187,18.344c-3.094,0.215 -5.568,-2.105 -5.625,-5.408c-0.057,-3.275 2.293,-6.213 5.435,-6.419c3.064,-0.201 5.416,2.308 5.456,5.65c0.039,3.277 -2.158,5.96 -5.266,6.177Z" style="fill:#6700aa;fill-rule:nonzero;"/><path d="M82.673,10.445c-0.553,-0.101 -3.227,-0.618 -5.375,0.313c-0.137,0.059 -0.298,-0.059 -0.285,-0.207l0.061,-0.67c0.017,-0.19 -0.156,-0.411 -0.362,-0.44c-0.554,-0.078 -3.458,-0.486 -6.942,-0.758c-0.205,-0.016 -0.401,0.163 -0.406,0.352c-0.143,5.044 -0.443,14.9 0.299,23.885c0.018,0.213 0.231,0.427 0.424,0.444c3.655,0.338 6.692,0.857 7.27,0.956c0.218,0.037 0.36,-0.137 0.331,-0.345c-0.156,-1.125 -0.928,-6.68 -0.76,-14.178c0.004,-0.159 -0.036,-1.553 0.471,-2.489c0.166,-0.324 0.727,-0.904 1.561,-0.959c0.933,-0.062 2.525,0.425 2.738,0.49c0.2,0.061 0.421,-0.084 0.447,-0.286c0.056,-0.452 0.34,-2.726 0.875,-5.628c0.037,-0.197 -0.131,-0.441 -0.347,-0.48l-0,-0Z" style="fill:#6700aa;fill-rule:nonzero;"/><path d="M98.904,14.433c-2.397,-0.832 -4.946,-0.925 -7.052,-0.427c-0.147,0.034 -0.296,-0.105 -0.266,-0.254l0.154,-0.742c0.041,-0.192 -0.109,-0.443 -0.319,-0.501c-3.503,-0.973 -6.462,-1.599 -7.029,-1.719c-0.209,-0.045 -0.43,0.111 -0.458,0.3c-1.134,7.636 -2.16,19.816 2.26,32.951c0.075,0.22 0.359,0.481 0.572,0.533c0.6,0.146 3.736,0.911 7.435,2.092c0.235,0.075 0.328,-0.087 0.237,-0.301c-1.949,-4.595 -2.812,-8.516 -2.98,-9.277c-0.043,-0.194 0.153,-0.167 0.252,-0.085c0.5,0.418 3.301,2.759 6.944,4.258c6.011,2.472 10.444,1.358 10.842,-7.727c0.363,-8.276 -3.064,-16.49 -10.592,-19.101Zm-2.952,18.847c-3.137,-1.24 -5.725,-4.693 -5.668,-8.091c0.058,-3.414 2.77,-5.311 5.921,-4.163c3.298,1.202 5.38,5.076 5.271,8.485c-0.107,3.353 -2.282,5.05 -5.524,3.769Z" style="fill:#6700aa;fill-rule:nonzero;"/></g><path d="M138.647,12.413l-22.268,-0c-0.234,-0 -0.424,0.189 -0.424,0.423l0,7.223c0,0.233 0.19,0.423 0.424,0.423l6.277,-0c0.234,-0 0.423,0.19 0.423,0.423l-0,26.132c-0,0.234 0.19,0.423 0.423,0.423l8.068,0c0.233,0 0.423,-0.189 0.423,-0.423l-0,-26.132c-0,-0.234 0.19,-0.423 0.423,-0.423l6.231,-0c0.234,-0 0.424,-0.19 0.424,-0.424l-0,-7.222c-0,-0.234 -0.19,-0.423 -0.424,-0.423l0,-0Z" style="fill:#6700aa;fill-rule:nonzero;"/><path d="M165.507,20.932c0,0 -7.406,0 -7.406,0c-0.234,0 -0.423,0.19 -0.423,0.424l-0,0.808c-0,0.163 -0.176,0.262 -0.318,0.182c-2.123,-1.2 -4.522,-1.831 -6.983,-1.831c-7.759,0 -14.072,6.225 -14.072,13.878c0,7.652 6.313,13.878 14.072,13.878c2.462,-0 4.861,-0.631 6.983,-1.832c0.142,-0.079 0.318,0.02 0.318,0.183l-0,0.39c-0,0.234 0.189,0.424 0.423,0.424l7.406,-0c0.234,-0 0.423,-0.19 0.423,-0.424l0,-25.656c0,-0.234 -0.189,-0.424 -0.423,-0.424Zm-13.86,19.826c-3.559,-0 -6.454,-2.855 -6.454,-6.365c-0,-3.51 2.895,-6.365 6.454,-6.365c3.559,0 6.03,2.855 6.03,6.365c0,3.51 -2.471,6.365 -6.03,6.365Z" style="fill:#6700aa;fill-rule:nonzero;"/><path d="M176.508,12.6l-7.829,0c-0.234,0 -0.424,0.189 -0.424,0.423l0,34.004c0,0.234 0.19,0.424 0.424,0.424l7.829,-0c0.234,-0 0.423,-0.19 0.423,-0.424l0,-34.004c0,-0.234 -0.189,-0.423 -0.423,-0.423Z" style="fill:#6700aa;fill-rule:nonzero;"/><path d="M194.444,34.417c-0.08,-0.134 -0.08,-0.302 0,-0.435l7.44,-12.394c0.169,-0.281 -0.034,-0.64 -0.363,-0.64l-8.597,-0c-0.156,-0 -0.299,0.086 -0.373,0.223l-4.247,7.932c-0.207,0.388 -0.796,0.241 -0.796,-0.2l-0,-15.88c-0,-0.234 -0.189,-0.423 -0.423,-0.423l-7.406,0c-0.234,0 -0.424,0.189 -0.424,0.423l0,34.004c0,0.234 0.19,0.424 0.424,0.424l7.406,-0c0.234,-0 0.423,-0.19 0.423,-0.424l-0,-7.532c-0,-0.44 0.589,-0.588 0.796,-0.2l4.247,7.932c0.074,0.138 0.217,0.224 0.373,0.224l8.597,-0c0.329,-0 0.532,-0.359 0.363,-0.641l-7.44,-12.393Z" style="fill:#6700aa;fill-rule:nonzero;"/></g></svg>